<?xml version="1.0" encoding="UTF-8" standalone="no"?>
<!-- Created with Inkscape (http://www.inkscape.org/) -->

<svg
   xmlns:dc="http://purl.org/dc/elements/1.1/"
   xmlns:cc="http://creativecommons.org/ns#"
   xmlns:rdf="http://www.w3.org/1999/02/22-rdf-syntax-ns#"
   xmlns:svg="http://www.w3.org/2000/svg"
   xmlns="http://www.w3.org/2000/svg"
   xmlns:sodipodi="http://sodipodi.sourceforge.net/DTD/sodipodi-0.dtd"
   xmlns:inkscape="http://www.inkscape.org/namespaces/inkscape"
   version="1.1"
   id="svg885"
   width="15.181166"
   height="15.204401"
   viewBox="0 0 44.025381 44.092763"
   sodipodi:docname="framgång.svg"
   inkscape:version="0.92.2 (5c3e80d, 2017-08-06)">
  <metadata
     id="metadata891">
    <rdf:RDF>
      <cc:Work
         rdf:about="">
        <dc:format>image/svg+xml</dc:format>
        <dc:type
           rdf:resource="http://purl.org/dc/dcmitype/StillImage" />
        <dc:title></dc:title>
      </cc:Work>
    </rdf:RDF>
  </metadata>
  <defs
     id="defs889" />
  <sodipodi:namedview
     pagecolor="#ffffff"
     bordercolor="#666666"
     borderopacity="1"
     objecttolerance="10"
     gridtolerance="10"
     guidetolerance="10"
     inkscape:pageopacity="0"
     inkscape:pageshadow="2"
     inkscape:window-width="1920"
     inkscape:window-height="1151"
     id="namedview887"
     showgrid="false"
     inkscape:zoom="8.173675"
     inkscape:cx="-11.258059"
     inkscape:cy="17.876529"
     inkscape:window-x="0"
     inkscape:window-y="27"
     inkscape:window-maximized="1"
     inkscape:current-layer="svg885"
     fit-margin-top="0"
     fit-margin-left="0"
     fit-margin-right="0"
     fit-margin-bottom="0"
     scale-x="2.9" />
  <path
     style="fill:#000000;fill-rule:evenodd;stroke:#000000;stroke-width:0.03779528;stroke-linecap:butt;stroke-linejoin:miter;stroke-miterlimit:4;stroke-dasharray:none;stroke-opacity:1"
     d="m 15.659076,12.36806 7.306035,7.112069 6.724138,-7.370689 -1.551724,-1.422413 c 0,0 -1.034483,-0.7112065 0.06465,-2.1982755 1.099138,-1.487069 2.068965,-0.646552 2.068965,-0.646552 l 1.875,1.61638 1.163794,-1.228449 1.357758,-0.25862 0.258621,-1.551724 2.327586,-3.1034491 c 0,0 -0.193966,-1.551724 0.775862,-2.32758604 0.969827,-0.775862 0.946157,-0.972489 2.909483,-0.969827 1.82559,0.0025 1.99737,0.690379 2.392241,1.87500004 0.317401,0.95221 0.193966,2.327586 -0.517241,3.103448 -2.00431,0.840517 -3.232759,0.452586 -2.00431,0.840517 -0.323276,0.2586211 -4.913794,6.0129296 -4.913794,6.0129296 0,0 1.642291,0.973314 1.875,1.810345 0.179236,0.644693 -0.12931,1.616378 -0.517241,1.939654 -0.387931,0.323276 -0.840518,1.357759 -2.392242,0.258621 -0.45386,-0.321484 -1.293103,-0.775862 -1.293103,-0.775862 l -6.336207,8.275863 c 0,0 6.012931,4.913793 9.827587,9.63362 3.814655,4.719828 6.465517,9.698275 6.918103,10.797413 0.452586,1.099138 -4.655172,-1.357758 -4.655172,-1.357758 0,0 -5.948276,-4.00862 -8.663794,-6.206896 -2.715517,-2.198276 -7.499999,-7.758621 -7.499999,-7.758621 l -7.306035,8.405173 c 0,0 -2.660892,2.393546 -5.49569,4.590516 -2.5862062,2.004311 -4.5258622,2.392241 -4.5258622,2.392241 1.380286,-5.521204 5.3017242,-10.668102 6.2715522,-11.76724 0.969828,-1.099138 6.853448,-8.017241 6.853448,-8.017241 L 11.39183,15.794784 c 0,0 -2.5862062,3.103448 -4.2672422,0.775861 -1.163788,-1.163793 -0.900779,-1.738213 1.68104,-4.008619 -1.103526,-1.882475 -3.426724,-4.1379295 -3.426724,-4.1379295 0,0 -1.357758,-0.517241 -1.422414,-1.293103 0.905167,0.258621 4.849138,-0.129311 1.487064,-0.323276 C 2.08149,6.6137515 2.05217,7.2358705 0.65907616,5.5146134 c -1.5589931,-1.926236 0.109901,-3.779086 0.96982774,-4.331896 0.9051723,-0.58189704 2.1408929,-1.25589604 3.6206899,0.06465 0.907986,0.810274 1.398521,1.563522 1.357758,2.327586 -0.05774,1.082279 -0.935781,0.753646 1.551724,2.9094831 0.969828,0.840517 1.613827,1.471074 2.0043112,1.939654 0.646552,0.775863 1.034483,1.034484 1.681034,1.422415 0.646552,0.3879305 -0.387931,1.4224125 0.775862,-0.06466 1.944379,-2.484485 2.068966,-2.133621 3.879311,-0.840518 1.41173,1.008379 -0.840518,3.4267225 -0.840518,3.4267225 z"
     id="path895"
     inkscape:connector-curvature="0"
     sodipodi:nodetypes="cccccccccccssscccsssccsscsccsssccccccssssssssssc" />
</svg>
