<?xml version="1.0" encoding="UTF-8" standalone="no"?>
<!-- Created with Inkscape (http://www.inkscape.org/) -->

<svg
   xmlns:dc="http://purl.org/dc/elements/1.1/"
   xmlns:cc="http://creativecommons.org/ns#"
   xmlns:rdf="http://www.w3.org/1999/02/22-rdf-syntax-ns#"
   xmlns:svg="http://www.w3.org/2000/svg"
   xmlns="http://www.w3.org/2000/svg"
   xmlns:sodipodi="http://sodipodi.sourceforge.net/DTD/sodipodi-0.dtd"
   xmlns:inkscape="http://www.inkscape.org/namespaces/inkscape"
   version="1.1"
   id="svg886"
   width="11.034459"
   height="15.17521"
   viewBox="0 0 11.034459 15.17521"
   sodipodi:docname="bane.svg"
   inkscape:version="0.92.2 (5c3e80d, 2017-08-06)">
  <metadata
     id="metadata892">
    <rdf:RDF>
      <cc:Work
         rdf:about="">
        <dc:format>image/svg+xml</dc:format>
        <dc:type
           rdf:resource="http://purl.org/dc/dcmitype/StillImage" />
        <dc:title></dc:title>
      </cc:Work>
    </rdf:RDF>
  </metadata>
  <defs
     id="defs890" />
  <sodipodi:namedview
     pagecolor="#ffffff"
     bordercolor="#666666"
     borderopacity="1"
     objecttolerance="10"
     gridtolerance="10"
     guidetolerance="10"
     inkscape:pageopacity="0"
     inkscape:pageshadow="2"
     inkscape:window-width="1920"
     inkscape:window-height="1151"
     id="namedview888"
     showgrid="false"
     inkscape:zoom="10.12"
     inkscape:cx="-12.70987"
     inkscape:cy="-3.4579486"
     inkscape:window-x="0"
     inkscape:window-y="27"
     inkscape:window-maximized="1"
     inkscape:current-layer="svg886"
     fit-margin-top="0"
     fit-margin-left="0"
     fit-margin-right="0"
     fit-margin-bottom="0" />
  <path
     style="fill:#000000;fill-rule:evenodd;stroke:#000000;stroke-width:0.17855775;stroke-linecap:butt;stroke-linejoin:miter;stroke-miterlimit:4;stroke-dasharray:none;stroke-opacity:1"
     d="m 0.50679523,2.9466607 c 0,0 0.56287147,-1.6969443 1.86329867,-2.21600971 1.3004274,-0.5190652 1.6109768,-0.5190652 2.5620357,-0.5390294 0.951059,-0.019964 1.9799276,-0.2506046 2.950223,0.059892 0.873421,0.2794967 1.470022,0.6474874 2.076801,1.39748361 0.6027494,0.7450138 0.7569654,1.557196 0.9122414,2.375722 -0.01941,0.7586336 0.28367,1.4963732 -0.213503,1.896585 -0.446415,0.3593533 -0.465825,0.6388493 -0.329959,1.4773393 -1.0675174,0.459174 0.109267,1.441929 -0.3687794,1.996405 -0.423837,0.491603 -0.579405,0.578924 -1.125743,0.6388495 -0.445573,0.04887 -0.659918,-0.1197835 -0.951058,0.239568 0.03882,0.678779 0.465825,1.07806 0.05823,1.437412 -0.349368,0.07986 -0.41158,0.296886 -0.485234,-0.119786 -0.07764,-0.439209 0.155275,-0.578957 -0.135864,-0.798561 -0.3475258,-0.262137 -0.659918,-0.05989 -0.6210993,0.219604 0.038819,0.279496 0.2911403,0.878419 0.1164559,0.978239 C 6.6401569,12.090194 6.0578764,12.17005 5.9802391,11.950444 5.9026001,11.73084 5.9414191,11.710876 6.0190581,11.29163 6.0966971,10.872386 6.25197,10.652781 5.8831909,10.672745 5.4728026,10.500114 4.922093,10.46629 4.9349237,10.84538 c 0.020804,0.614713 0.4214227,1.096587 0.1940933,1.126467 -0.3534347,0.04645 -0.8710116,0.205196 -0.8276242,-0.203948 0.038337,-0.361524 0.067251,-0.580696 -0.067997,-0.935438 C 4.1567478,10.631422 3.9645861,10.598635 3.6705244,10.813931 3.4596811,11.029229 3.7711957,11.555998 3.5928854,11.77077 3.2897455,11.83575 2.8359206,11.990377 2.8941487,11.471311 2.9523767,10.952245 3.2629265,10.293433 2.7388738,10.23354 2.214821,10.17365 1.787815,10.552965 1.3996278,10.19361 1.0114358,9.8342625 0.83675153,9.4549465 1.0308451,9.1355215 1.2249388,8.8160965 1.2443482,8.2970315 1.1667107,7.8378585 1.0890733,7.3786855 0.66206723,7.6981105 0.60383923,7.1590815 0.54561113,6.6200505 0.68147663,6.3205905 0.58442973,5.7416332 0.25447353,5.1227422 0.04097053,4.4240002 0.09919863,3.944863 0.15742673,3.4657257 0.50679523,2.9466607 0.50679523,2.9466607 Z"
     id="path896"
     inkscape:connector-curvature="0"
     sodipodi:nodetypes="csssscscssccsscscccssssccsscssscsc" />
  <path
     style="fill:#ffffff;fill-rule:evenodd;stroke:#000000;stroke-width:0.17855775;stroke-linecap:butt;stroke-linejoin:miter;stroke-miterlimit:4;stroke-dasharray:none;stroke-opacity:1"
     d="m 2.9523748,5.2624908 c 0.698737,0.059892 1.1645617,0.1796763 1.397474,0.6388493 C 4.6224642,6.4387855 4.4080768,6.9594345 4.2333926,7.3587155 4.0942913,7.6766635 3.825796,7.9975655 3.4181994,8.1373135 3.0106029,8.2770615 2.7000531,8.2770615 2.2730471,8.1173525 1.9819067,7.8977475 1.6470601,7.5654665 1.6131288,7.1990065 1.5743102,6.7797615 1.5854923,6.3015505 1.6907662,5.9612352 1.8266318,5.5220264 2.6612343,5.3024201 2.6612343,5.3024201 Z"
     id="path898"
     inkscape:connector-curvature="0"
     sodipodi:nodetypes="cssccsscc" />
  <path
     style="fill:#ffffff;fill-rule:evenodd;stroke:#000000;stroke-width:0.17855775;stroke-linecap:butt;stroke-linejoin:miter;stroke-miterlimit:4;stroke-dasharray:none;stroke-opacity:1"
     d="m 7.3194806,5.5819152 c 0.854012,-0.09982 1.494521,-0.039927 1.746843,0.3593529 0.252322,0.3992814 0.349369,0.6388504 0.349369,1.0980234 0,0.448635 -0.329959,0.918346 -0.815194,1.277698 -0.27191,0.201371 -0.834602,0.239569 -1.222789,0.119784 C 7.1059781,8.2371315 6.7954281,8.0574555 6.6789721,7.6382105 6.6595608,7.2189655 6.3994926,6.8603755 6.5625162,6.4802955 6.8536565,5.8015181 7.3194806,5.5819152 7.3194806,5.5819152 Z"
     id="path900"
     inkscape:connector-curvature="0"
     sodipodi:nodetypes="ccssccscc" />
  <path
     style="fill:#ffffff;fill-rule:evenodd;stroke:#000000;stroke-width:0.17855775;stroke-linecap:butt;stroke-linejoin:miter;stroke-miterlimit:4;stroke-dasharray:none;stroke-opacity:1"
     d="m 5.553229,6.6400105 c -0.4075966,0.09982 -0.3881871,0.479137 -0.5046433,0.998202 -0.1164561,0.519065 -0.3299589,0.838491 -0.5434622,1.018167 -0.2135028,0.179676 -0.038817,0.678777 0.3299594,0.738669 0.3687776,0.05989 0.2911404,0.399281 0.698737,0.339389 0.2911403,-0.03993 0.4075963,-0.259533 0.640509,-0.399281 C 6.5236975,9.1954075 6.7177908,9.0955885 6.6207446,8.7961275 6.5236975,8.4966665 6.4848789,8.7162675 6.2519662,8.3169895 6.0190543,7.9177095 6.0772819,7.3986435 5.9220073,7.1790395 5.863782,6.6999025 5.553229,6.6400105 5.553229,6.6400105 Z"
     id="path902"
     inkscape:connector-curvature="0"
     sodipodi:nodetypes="cscscccscc" />
  <path
     style="fill:#000000;fill-rule:evenodd;stroke:#000000;stroke-width:0.17855775;stroke-linecap:butt;stroke-linejoin:miter;stroke-miterlimit:4;stroke-dasharray:none;stroke-opacity:1"
     d="m 5.4367728,15.084803 c 0.9510591,-0.03993 1.378065,-0.159713 1.7662528,-0.499101 0.388187,-0.339389 0.89283,-0.618886 1.009286,-0.898383 0.116456,-0.279497 0.29114,-0.499101 0.29114,-0.978238 0,-0.479138 0.271732,-1.157915 -0.05823,-0.958274 -0.107785,0.731604 -0.708897,0.299482 -0.465825,0.93831 0.01941,0.299461 -0.486014,0.805699 -0.738335,0.765771 -0.2523227,-0.03993 0.059,-0.626023 -0.05745,-0.785736 -0.1164564,-0.159711 -0.6380148,0.07513 -0.6380148,0.07513 0,0 -0.063246,0.199487 -0.0219,0.384047 0.058225,0.259934 0.2300286,0.592587 -0.097046,0.638849 -0.3545546,0.05015 -0.7767651,0.32993 -0.6822117,-0.341552 0.038819,-0.396315 0.065323,-0.568295 -0.1283853,-0.602692 -0.26777,-0.04755 -0.674156,-0.33489 -0.674156,0.06439 0,0.399281 0.2941828,0.986442 -0.4173663,0.95971 C 4.2670078,13.837334 4.1309661,13.640099 4.1503756,13.30071 4.1697866,13.144767 4.365997,12.830057 4.1363456,12.709083 3.7819814,12.522409 3.5164333,12.291823 3.5705981,12.582964 3.6651981,13.09145 3.7674448,13.7848 3.4698868,13.603136 3.2353984,13.459977 2.9147365,13.490974 2.9176207,12.96718 c 0.00396,-0.718972 0.149148,-0.56837 -0.081694,-0.657379 -0.3643173,-0.140474 -0.3930322,-0.799839 -0.4852423,-0.419248 -0.2095674,0.864976 -0.024788,1.565695 0.3105498,1.856657 0.3501373,0.303803 0.5434621,1.078058 1.2227896,1.217807 0.6793275,0.139749 1.5527487,0.119784 1.5527487,0.119784 z"
     id="path906"
     inkscape:connector-curvature="0"
     sodipodi:nodetypes="ccsscccccsscssscsssssssscc" />
</svg>
